<svg width="150" height="19" viewBox="0 0 150 19" fill="none" xmlns="http://www.w3.org/2000/svg">
<g clip-path="url(#clip0_0_7014)">
<path opacity="0.75" d="M0.57 14.325L4.395 10.335C4.835 9.865 5.175 9.47 5.415 9.15C5.665 8.83 5.835 8.54 5.925 8.28C6.025 8.01 6.075 7.73 6.075 7.44C6.075 6.85 5.89 6.39 5.52 6.06C5.15 5.72 4.66 5.55 4.05 5.55C3.49 5.55 3 5.685 2.58 5.955C2.16 6.215 1.785 6.61 1.455 7.14L0.69 6.465C1.09 5.835 1.57 5.355 2.13 5.025C2.69 4.695 3.34 4.53 4.08 4.53C4.7 4.53 5.24 4.65 5.7 4.89C6.17 5.13 6.53 5.47 6.78 5.91C7.04 6.35 7.17 6.865 7.17 7.455C7.17 7.865 7.115 8.24 7.005 8.58C6.895 8.91 6.7 9.26 6.42 9.63C6.15 9.99 5.765 10.43 5.265 10.95L2.025 14.28L0.57 14.325ZM0.57 15V14.325L1.47 14.01H7.425V15H0.57ZM13.0506 15.15C12.2906 15.15 11.5956 14.935 10.9656 14.505C10.3356 14.065 9.83059 13.445 9.45059 12.645C9.08059 11.845 8.89559 10.905 8.89559 9.825C8.89559 8.735 9.08059 7.8 9.45059 7.02C9.82059 6.23 10.3156 5.62 10.9356 5.19C11.5656 4.75 12.2606 4.53 13.0206 4.53C13.7906 4.53 14.4856 4.745 15.1056 5.175C15.7356 5.605 16.2356 6.22 16.6056 7.02C16.9756 7.81 17.1606 8.75 17.1606 9.84C17.1606 10.92 16.9756 11.86 16.6056 12.66C16.2356 13.46 15.7406 14.075 15.1206 14.505C14.5006 14.935 13.8106 15.15 13.0506 15.15ZM13.0206 14.115C13.6106 14.115 14.1306 13.95 14.5806 13.62C15.0406 13.28 15.4006 12.795 15.6606 12.165C15.9206 11.525 16.0506 10.745 16.0506 9.825C16.0506 8.915 15.9206 8.145 15.6606 7.515C15.4006 6.875 15.0406 6.39 14.5806 6.06C14.1306 5.73 13.6106 5.565 13.0206 5.565C12.4406 5.565 11.9206 5.73 11.4606 6.06C11.0106 6.39 10.6556 6.87 10.3956 7.5C10.1356 8.13 10.0056 8.905 10.0056 9.825C10.0056 10.745 10.1356 11.525 10.3956 12.165C10.6556 12.795 11.0106 13.28 11.4606 13.62C11.9206 13.95 12.4406 14.115 13.0206 14.115ZM18.4704 14.325L22.2954 10.335C22.7354 9.865 23.0754 9.47 23.3154 9.15C23.5654 8.83 23.7354 8.54 23.8254 8.28C23.9254 8.01 23.9754 7.73 23.9754 7.44C23.9754 6.85 23.7904 6.39 23.4204 6.06C23.0504 5.72 22.5604 5.55 21.9504 5.55C21.3904 5.55 20.9004 5.685 20.4804 5.955C20.0604 6.215 19.6854 6.61 19.3554 7.14L18.5904 6.465C18.9904 5.835 19.4704 5.355 20.0304 5.025C20.5904 4.695 21.2404 4.53 21.9804 4.53C22.6004 4.53 23.1404 4.65 23.6004 4.89C24.0704 5.13 24.4304 5.47 24.6804 5.91C24.9404 6.35 25.0704 6.865 25.0704 7.455C25.0704 7.865 25.0154 8.24 24.9054 8.58C24.7954 8.91 24.6004 9.26 24.3204 9.63C24.0504 9.99 23.6654 10.43 23.1654 10.95L19.9254 14.28L18.4704 14.325ZM18.4704 15V14.325L19.3704 14.01H25.3254V15H18.4704ZM28.716 15V4.68H29.796V15H28.716ZM26.541 5.655V4.68H29.646V5.655H26.541Z" fill="white"/>
<g clip-path="url(#clip1_0_7014)">
<path opacity="0.75" d="M131.025 10.86V9.885H134.07C134.49 9.885 134.865 9.8 135.195 9.63C135.535 9.46 135.8 9.22 135.99 8.91C136.19 8.59 136.29 8.21 136.29 7.77C136.29 7.33 136.19 6.955 135.99 6.645C135.8 6.325 135.535 6.08 135.195 5.91C134.865 5.73 134.49 5.64 134.07 5.64H131.025V4.68H134.145C134.765 4.68 135.32 4.81 135.81 5.07C136.3 5.32 136.685 5.675 136.965 6.135C137.255 6.595 137.4 7.14 137.4 7.77C137.4 8.39 137.255 8.935 136.965 9.405C136.685 9.865 136.3 10.225 135.81 10.485C135.32 10.735 134.765 10.86 134.145 10.86H131.025ZM130.32 15V4.68H131.415V15H130.32ZM144.111 15.135C143.381 15.135 142.701 15 142.071 14.73C141.441 14.46 140.891 14.085 140.421 13.605C139.951 13.125 139.586 12.565 139.326 11.925C139.066 11.275 138.936 10.575 138.936 9.825C138.936 9.075 139.066 8.38 139.326 7.74C139.596 7.1 139.966 6.54 140.436 6.06C140.906 5.57 141.461 5.19 142.101 4.92C142.741 4.65 143.436 4.515 144.186 4.515C145.016 4.515 145.776 4.68 146.466 5.01C147.166 5.34 147.741 5.805 148.191 6.405L147.426 7.17C147.066 6.66 146.606 6.27 146.046 6C145.486 5.72 144.866 5.58 144.186 5.58C143.376 5.58 142.661 5.765 142.041 6.135C141.421 6.495 140.936 6.995 140.586 7.635C140.246 8.275 140.076 9.01 140.076 9.84C140.076 10.66 140.246 11.39 140.586 12.03C140.936 12.67 141.411 13.175 142.011 13.545C142.621 13.905 143.311 14.085 144.081 14.085C144.851 14.085 145.516 13.93 146.076 13.62C146.646 13.31 147.081 12.86 147.381 12.27C147.691 11.68 147.851 10.97 147.861 10.14L148.491 10.605H143.976V9.6H149.001V9.765C149.001 10.925 148.791 11.905 148.371 12.705C147.961 13.505 147.391 14.11 146.661 14.52C145.931 14.93 145.081 15.135 144.111 15.135Z" fill="white"/>
<circle opacity="0.5" cx="119.5" cy="9.5" r="1.5" fill="white"/>
</g>
<path opacity="0.75" d="M70.32 15V4.68H71.1L75.555 11.985H75L79.455 4.68H80.235V15H79.125V6.6L79.38 6.66L75.66 12.765H74.88L71.16 6.66L71.415 6.6V15H70.32ZM85.7991 15.15C85.1191 15.15 84.4991 14.985 83.9391 14.655C83.3891 14.325 82.9491 13.88 82.6191 13.32C82.2991 12.76 82.1391 12.135 82.1391 11.445C82.1391 10.765 82.2991 10.15 82.6191 9.6C82.9491 9.05 83.3891 8.615 83.9391 8.295C84.4991 7.965 85.1191 7.8 85.7991 7.8C86.4891 7.8 87.1091 7.96 87.6591 8.28C88.2091 8.6 88.6441 9.04 88.9641 9.6C89.2941 10.15 89.4591 10.765 89.4591 11.445C89.4591 12.145 89.2941 12.775 88.9641 13.335C88.6441 13.885 88.2091 14.325 87.6591 14.655C87.1091 14.985 86.4891 15.15 85.7991 15.15ZM85.7991 14.13C86.2991 14.13 86.7391 14.015 87.1191 13.785C87.5091 13.555 87.8141 13.235 88.0341 12.825C88.2641 12.415 88.3791 11.955 88.3791 11.445C88.3791 10.935 88.2641 10.485 88.0341 10.095C87.8141 9.695 87.5091 9.38 87.1191 9.15C86.7391 8.92 86.2991 8.805 85.7991 8.805C85.3091 8.805 84.8691 8.92 84.4791 9.15C84.0891 9.38 83.7841 9.695 83.5641 10.095C83.3441 10.485 83.2341 10.935 83.2341 11.445C83.2341 11.965 83.3441 12.43 83.5641 12.84C83.7841 13.24 84.0891 13.555 84.4791 13.785C84.8691 14.015 85.3091 14.13 85.7991 14.13ZM93.2965 15L90.0415 7.95H91.2115L93.9565 14.115H93.2965L96.0565 7.95H97.1965L93.9115 15H93.2965ZM98.5123 15V7.95H99.5773V15H98.5123ZM99.0373 6.42C98.8373 6.42 98.6673 6.35 98.5273 6.21C98.3873 6.06 98.3173 5.885 98.3173 5.685C98.3173 5.475 98.3873 5.3 98.5273 5.16C98.6673 5.02 98.8373 4.95 99.0373 4.95C99.2573 4.95 99.4323 5.02 99.5623 5.16C99.7023 5.3 99.7723 5.475 99.7723 5.685C99.7723 5.885 99.7023 6.06 99.5623 6.21C99.4323 6.35 99.2573 6.42 99.0373 6.42ZM104.961 15.15C104.251 15.15 103.616 14.99 103.056 14.67C102.496 14.35 102.051 13.91 101.721 13.35C101.401 12.79 101.241 12.16 101.241 11.46C101.241 10.77 101.401 10.15 101.721 9.6C102.041 9.04 102.476 8.6 103.026 8.28C103.576 7.96 104.191 7.8 104.871 7.8C105.511 7.8 106.076 7.945 106.566 8.235C107.066 8.525 107.456 8.93 107.736 9.45C108.026 9.96 108.171 10.55 108.171 11.22C108.171 11.3 108.166 11.395 108.156 11.505C108.146 11.605 108.126 11.725 108.096 11.865H101.991V10.965H107.526L107.151 11.295C107.161 10.775 107.071 10.33 106.881 9.96C106.701 9.58 106.436 9.29 106.086 9.09C105.746 8.88 105.331 8.775 104.841 8.775C104.331 8.775 103.886 8.885 103.506 9.105C103.126 9.325 102.826 9.635 102.606 10.035C102.396 10.425 102.291 10.89 102.291 11.43C102.291 11.97 102.401 12.445 102.621 12.855C102.851 13.265 103.166 13.585 103.566 13.815C103.976 14.045 104.446 14.16 104.976 14.16C105.406 14.16 105.801 14.085 106.161 13.935C106.521 13.775 106.826 13.54 107.076 13.23L107.751 13.92C107.421 14.31 107.011 14.615 106.521 14.835C106.041 15.045 105.521 15.15 104.961 15.15Z" fill="white"/>
<path opacity="0.75" fill-rule="evenodd" clip-rule="evenodd" d="M61.1733 4H52.8267C51.8178 4 51 4.81783 51 5.82667V14.1733C51 15.1822 51.8178 16 52.8267 16H61.1733C61.6578 16 62.1224 15.8075 62.465 15.465C62.8075 15.1224 63 14.6578 63 14.1733V5.82667C63 5.3422 62.8075 4.87758 62.465 4.53502C62.1224 4.19245 61.6578 4 61.1733 4ZM53.4 9.4H52.2V8.2H53.4V9.4ZM53.4 10.6H52.2V11.8H53.4V10.6ZM61.8 9.4H60.6V8.2H61.8V9.4ZM61.8 10.6H60.6V11.8H61.8V10.6ZM61.8 5.644V6.4H60.6V5.2H61.356C61.4738 5.2 61.5867 5.24678 61.67 5.33004C61.7532 5.41331 61.8 5.52624 61.8 5.644ZM53.4 5.2H52.644C52.5262 5.2 52.4133 5.24678 52.33 5.33004C52.2468 5.41331 52.2 5.52624 52.2 5.644V6.4H53.4V5.2ZM52.2 14.356V13.6H53.4V14.8H52.644C52.5262 14.8 52.4133 14.7532 52.33 14.67C52.2468 14.5867 52.2 14.4738 52.2 14.356ZM61.356 14.8C61.6012 14.8 61.8 14.6012 61.8 14.356V13.6H60.6V14.8H61.356Z" fill="white"/>
<circle opacity="0.5" cx="41.5" cy="9.5" r="1.5" fill="white"/>
</g>
<defs>
<clipPath id="clip0_0_7014">
<rect width="150" height="19" fill="white"/>
</clipPath>
<clipPath id="clip1_0_7014">
<rect width="32" height="19" fill="white" transform="translate(118)"/>
</clipPath>
</defs>
</svg>
